# xmcd
#
# Track frame offsets:
#	150
#	17196
#	33635
#	51837
#	68106
#	81844
#	99624
#	118628
#	137740
#	156802
#	178266
#	199143
#	220795
#	236960
#	253798
#	270898
#	285228
#	304884
#	323427
#	343133
#
# Disc length: 4783 seconds
#
# Revision: 2
# Processed by: cddbd v1.5.1PL0 Copyright (c) Steve Scherf et al.
# Submitted via: EasyCDDAExtractor 7.0.4.1
#
DISCID=2612ad14
DTITLE=Bruno e Marrone - Acustico Ao Vivo Vol. 2
DYEAR=2004
DGENRE=Country
TTITLE0=Inevitável
TTITLE1=Agora Vai - Passou da Conta
TTITLE2=Coração de Pedra
TTITLE3=Deixa
TTITLE4=Transito Parado
TTITLE5=O Amor Esta Aqui
TTITLE6=Credo em Cruz, Ave-Maria - Pra la Que eu Vou
TTITLE7=Meu Disfarce
TTITLE8=Te Amar Foi Ilusão
TTITLE9=Será
TTITLE10=Por Um Minuto
TTITLE11=Se Tiver Coragem, Joga Fora
TTITLE12=Ligacão Urbana
TTITLE13=Então Pode Ir
TTITLE14=Sonhos Perdidos
TTITLE15=Grito de Alerta
TTITLE16=Se Não Tivesse Ido
TTITLE17=Menina
TTITLE18=Vai Dar Namoro
TTITLE19=Dormi Na Praça - Doce Desejo - Uma Noite - Making-Of
EXTD=
EXTT0=
EXTT1=
EXTT2=
EXTT3=
EXTT4=
EXTT5=
EXTT6=
EXTT7=
EXTT8=
EXTT9=
EXTT10=
EXTT11=
EXTT12=
EXTT13=
EXTT14=
EXTT15=
EXTT16=
EXTT17=
EXTT18=
EXTT19=
PLAYORDER=
